<?xml version="1.0" standalone="no"?>
<!DOCTYPE svg PUBLIC "-//W3C//DTD SVG 20010904//EN"
 "http://www.w3.org/TR/2001/REC-SVG-20010904/DTD/svg10.dtd">
<svg version="1.0" xmlns="http://www.w3.org/2000/svg"
 width="315.000000pt" height="315.000000pt" viewBox="0 0 315.000000 315.000000"
 preserveAspectRatio="xMidYMid meet">
<g transform="translate(0.000000,315.000000) scale(0.100000,-0.100000)"
fill="#000000" stroke="none">
<path d="M1632 3120 c-53 -38 -62 -56 -62 -129 0 -55 -4 -67 -40 -120 l-40
-58 0 -106 c0 -83 -4 -118 -20 -157 -28 -71 -25 -110 12 -183 28 -54 33 -75
38 -162 5 -98 6 -100 33 -113 l29 -14 -7 -186 c-4 -103 -12 -207 -18 -232 -6
-25 -11 -133 -11 -240 -1 -186 -2 -197 -23 -227 -13 -17 -23 -34 -23 -38 0 -4
-18 -27 -40 -51 -27 -29 -40 -53 -40 -72 0 -21 -18 -47 -80 -110 -66 -67 -80
-87 -80 -113 0 -25 -15 -48 -80 -119 -58 -63 -80 -95 -80 -114 0 -17 -14 -42
-40 -70 -22 -24 -40 -47 -40 -51 0 -4 -18 -27 -40 -51 -28 -30 -40 -53 -40
-73 0 -16 -11 -49 -25 -72 -27 -48 -32 -84 -13 -95 8 -5 9 -2 4 11 -4 11 4 37
24 71 16 30 30 66 30 82 0 19 12 40 40 67 22 21 40 44 40 51 0 7 16 26 36 43
24 22 37 43 41 69 5 28 25 58 85 123 65 72 78 92 78 121 0 29 11 44 76 108 86
85 85 67 -2 -29 -57 -63 -75 -95 -48 -84 27 10 146 183 127 183 -5 0 -1 6 7
13 20 15 62 87 52 87 -4 0 -16 -15 -27 -32 -16 -27 -20 -30 -23 -14 -3 12 13
35 42 65 25 26 46 50 46 54 0 4 14 29 30 55 16 27 30 57 30 66 0 9 4 16 10 16
15 0 7 31 -19 75 -22 37 -23 47 -18 145 4 58 11 128 16 155 6 28 13 136 17
240 l8 190 9 -105 c4 -58 6 -167 4 -243 -2 -76 0 -140 4 -143 18 -11 9 -67
-16 -96 -14 -16 -25 -35 -25 -41 0 -24 27 -87 44 -106 27 -30 31 -89 8 -138
-10 -24 -22 -40 -27 -35 -4 4 -6 0 -3 -8 3 -8 -1 -21 -8 -28 -7 -7 -11 -19 -8
-27 4 -9 0 -15 -10 -15 -15 0 -21 -17 -17 -49 2 -8 -2 -10 -10 -5 -7 4 -10 3
-5 -4 3 -6 -1 -18 -10 -27 -9 -9 -14 -18 -11 -21 3 -3 -6 -16 -19 -29 -13 -13
-24 -30 -24 -37 0 -8 3 -9 8 -3 9 13 42 16 42 4 0 -5 -6 -9 -14 -9 -8 0 -16
-7 -20 -15 -3 -8 -13 -15 -21 -15 -9 0 -14 -4 -11 -8 10 -17 -14 -81 -28 -76
-19 7 -31 -15 -27 -50 2 -22 -1 -28 -12 -23 -11 4 -18 -3 -22 -24 -4 -16 -10
-29 -14 -29 -10 0 -46 -82 -43 -98 2 -7 -4 -15 -12 -18 -8 -3 -18 -20 -22 -37
-3 -18 -22 -61 -40 -96 -19 -35 -34 -69 -34 -74 0 -6 -6 -18 -14 -26 -19 -21
-33 -77 -17 -67 6 4 9 12 6 17 -4 5 -1 9 5 9 6 0 23 26 38 58 26 56 27 57 33
27 6 -26 6 -26 4 7 -2 23 5 53 20 82 12 24 27 58 33 75 8 22 15 29 26 25 9 -3
16 -1 16 5 0 6 5 11 11 11 5 0 7 -4 4 -10 -4 -7 48 -10 149 -10 l156 0 0 -101
c0 -95 -1 -101 -19 -96 -13 3 -18 0 -15 -8 3 -7 -4 -15 -16 -18 -15 -4 -24 0
-30 16 -12 30 -12 10 -1 -31 9 -29 7 -34 -15 -48 -13 -9 -30 -14 -38 -11 -8 3
-17 3 -21 -1 -3 -3 -21 -5 -40 -3 -51 4 -145 -55 -129 -81 4 -7 3 -8 -4 -4 -9
5 -12 -15 -12 -73 l0 -81 -103 0 -104 0 5 30 c3 18 0 30 -7 30 -6 0 -11 17
-11 41 0 28 4 38 12 33 7 -4 8 -3 4 4 -4 7 0 22 9 34 15 23 15 22 9 -9 -4 -22
-3 -33 5 -33 7 0 10 18 9 49 l-2 49 -19 -21 c-24 -28 -37 -61 -37 -95 0 -50
-101 -69 -113 -21 -4 15 -11 18 -30 14 -14 -4 -28 -2 -31 4 -4 6 -11 11 -17
11 -5 0 2 -13 17 -29 16 -19 39 -31 65 -35 29 -5 42 -13 48 -29 5 -12 7 -25 5
-29 -13 -21 48 -26 267 -21 221 5 340 6 383 3 11 0 23 5 27 12 13 20 11 66 -3
71 -10 4 -9 8 2 17 12 9 9 10 -15 7 -16 -2 -24 -2 -17 0 19 7 14 30 -7 36 -12
3 -18 -1 -17 -12 1 -11 -6 -15 -24 -14 l-25 2 23 -11 c24 -12 28 -23 12 -33
-6 -4 -6 -15 0 -30 l10 -25 -124 0 c-118 0 -124 1 -119 19 4 17 11 19 55 14
40 -5 50 -3 46 7 -2 8 -10 16 -18 18 -7 3 -10 0 -6 -6 11 -18 -54 8 -76 30
-14 14 -27 18 -45 13 -42 -10 -22 17 31 43 27 13 46 25 43 28 -3 3 -15 0 -27
-6 -29 -15 -60 -21 -60 -10 0 19 54 49 108 60 84 17 146 46 138 65 -3 10 1 18
12 22 9 4 35 20 57 37 l40 31 -3 148 c-1 87 1 147 7 147 16 0 17 -18 15 -174
-2 -83 0 -144 3 -136 4 10 10 4 19 -20 7 -19 13 -28 13 -20 1 8 -5 26 -12 40
-7 14 -12 45 -11 70 13 202 12 219 -7 236 -30 27 -49 3 -49 -62 0 -44 -3 -52
-15 -48 -11 5 -13 10 -5 19 6 7 7 31 4 57 -6 40 -9 45 -27 40 -20 -5 -20 -6
-1 -13 18 -6 17 -8 -6 -17 -15 -6 -32 -6 -42 0 -10 5 -18 5 -18 1 0 -4 -33 -7
-72 -5 -40 2 -90 3 -110 3 -41 -1 -50 16 -23 39 11 10 18 9 30 -4 9 -9 24 -16
33 -15 12 0 11 3 -5 9 -13 5 -22 17 -22 27 1 17 2 17 6 1 5 -22 19 -23 26 -4
4 9 -2 17 -14 21 -23 8 -25 21 -3 29 10 4 13 2 8 -6 -5 -7 -3 -8 5 -4 7 5 10
14 7 21 -3 9 4 13 22 13 59 -1 65 1 52 17 -10 12 -10 15 0 15 9 0 8 6 -4 19
-12 13 -14 21 -6 26 6 4 10 19 8 33 -3 24 1 27 27 28 17 0 33 -4 37 -10 5 -7
8 -7 8 2 0 17 26 15 49 -4 11 -10 16 -24 14 -35 -3 -11 0 -19 6 -19 6 0 11 14
11 30 0 17 9 40 20 52 21 23 23 52 9 103 -8 28 -8 27 -4 -8 5 -50 -19 -107
-45 -107 -11 0 -20 7 -20 15 0 18 20 20 20 3 1 -22 24 25 28 54 2 21 -1 28
-13 28 -9 0 -14 -4 -10 -9 3 -5 -2 -17 -11 -25 -12 -12 -12 -16 -2 -17 7 0 3
-4 -10 -9 -12 -5 -28 -7 -36 -4 -11 4 -13 -1 -10 -18 2 -13 1 -16 -2 -8 -11
25 -28 30 -41 13 -12 -16 -13 -16 -13 1 0 10 -5 15 -12 11 -7 -4 -5 0 5 8 9 8
17 20 18 28 0 8 4 5 8 -6 6 -15 9 -10 14 24 3 24 11 47 18 51 7 5 10 21 7 39
-3 22 -1 28 6 21 16 -16 25 -12 19 9 -3 11 3 24 14 32 10 8 18 20 19 27 1 6 2
17 3 24 0 6 12 1 26 -12 14 -13 25 -18 25 -12 0 6 -8 15 -17 21 -11 6 -19 23
-20 43 -2 57 -23 169 -33 187 -8 13 -9 11 -5 -9 12 -61 13 -80 4 -80 -5 0 -10
11 -10 25 -2 34 -3 36 -18 64 -12 22 -11 26 25 56 l38 32 -13 164 c-7 90 -18
202 -26 249 -8 47 -16 119 -20 160 -12 148 -29 196 -91 265 l-36 40 29 -53
c15 -29 36 -62 46 -72 13 -15 17 -37 17 -95 0 -48 4 -74 10 -70 6 3 10 1 10
-4 0 -6 -12 -11 -28 -11 l-27 0 3 80 c4 75 2 84 -30 147 -19 38 -33 74 -30 82
3 8 0 11 -7 7 -8 -5 -11 7 -10 41 1 27 4 37 6 23 5 -26 38 -75 84 -125 41 -44
77 -167 90 -304 5 -64 14 -145 19 -181 5 -36 12 -134 16 -217 4 -84 10 -151
13 -149 10 7 5 335 -7 416 -6 41 -12 110 -13 153 -1 42 -5 77 -9 77 -7 0 -21
54 -19 70 0 3 -7 22 -16 43 -9 22 -11 37 -5 37 6 0 13 -7 16 -15 7 -17 64 -21
64 -5 0 6 -10 15 -22 20 -13 5 -31 16 -41 24 -18 14 -17 16 5 50 27 42 38 45
38 11 0 -34 20 -75 38 -75 10 0 12 6 7 23 -4 12 -9 34 -12 50 -5 27 -5 27 50
27 61 0 80 -12 46 -30 -11 -7 -18 -14 -15 -17 3 -3 -2 -11 -10 -18 -14 -9 -14
-16 -5 -33 10 -19 9 -23 -10 -31 -15 -5 -18 -10 -11 -15 11 -7 42 0 146 30 27
8 51 12 53 10 8 -7 -89 -58 -122 -63 -19 -3 -42 -14 -51 -24 -17 -18 -16 -19
17 -13 32 5 33 5 15 -10 -11 -9 -23 -16 -28 -16 -4 0 -8 -6 -8 -14 0 -9 -8
-13 -22 -9 -21 4 -21 3 -5 -7 36 -23 157 56 197 130 8 14 13 29 12 33 -1 5 6
11 17 14 22 6 32 24 22 41 -5 8 -18 4 -43 -13 -20 -13 -56 -27 -80 -30 -23 -4
-53 -8 -65 -11 -32 -6 -28 12 6 32 28 16 42 36 55 77 5 17 8 16 38 -7 32 -24
49 -30 76 -27 20 2 -12 31 -33 31 -36 0 -2 19 48 26 59 8 67 10 122 22 22 6
31 10 21 11 -19 1 -19 1 -1 14 17 13 17 14 -4 20 -11 3 -21 1 -21 -5 0 -6 -7
-8 -15 -4 -8 3 -15 1 -15 -4 0 -5 8 -11 18 -13 9 -3 0 -5 -20 -6 -21 0 -38 -4
-38 -9 0 -4 -23 -7 -50 -6 -37 0 -54 -4 -60 -15 -8 -14 -11 -13 -16 6 -3 13
-10 21 -14 18 -4 -3 -19 4 -33 15 -14 11 -28 20 -32 20 -5 0 -14 8 -22 18 -8
9 -12 12 -8 5 3 -7 -4 -17 -15 -23 -16 -9 -20 -8 -20 5 0 9 5 13 11 10 7 -5 8
13 3 57 -8 79 -14 87 -14 19 0 -29 -4 -50 -8 -47 -5 3 -8 -7 -6 -22 1 -15 2
-33 3 -40 1 -10 10 -12 30 -7 32 7 71 -11 71 -33 0 -10 -18 -13 -72 -11 -40 1
-79 7 -85 12 -9 6 -15 4 -19 -7 -8 -20 -24 -21 -24 -1 0 8 8 19 19 24 14 8 21
30 30 88 14 95 16 243 4 252 -5 3 -16 18 -26 34 -15 23 -24 27 -66 27 -27 0
-56 -3 -65 -6 -29 -11 -5 -24 44 -24 39 0 54 -5 75 -25 25 -25 34 -65 15 -65
-5 0 -14 9 -20 21 -7 11 -14 18 -17 15 -4 -3 -11 -2 -17 3 -30 25 -108 11
-124 -22 -15 -31 -21 -77 -11 -83 5 -3 9 1 9 9 0 19 29 44 61 52 33 8 85 -33
106 -84 15 -36 15 -36 -22 -68 -45 -38 -86 -49 -126 -33 -38 16 -51 4 -20 -21
43 -35 97 -23 160 35 33 30 34 30 27 6 -4 -14 -10 -36 -13 -48 -3 -13 -24 -44
-47 -68 -32 -33 -49 -44 -72 -44 -40 0 -97 50 -94 82 0 13 4 84 8 158 7 144
17 175 66 217 23 21 26 30 26 93 0 57 4 74 20 90 11 11 24 20 29 20 5 0 11 4
13 9 2 4 23 18 48 29 l45 20 -36 1 c-25 1 -49 -8 -77 -29z m18 -347 c31 -21
60 -53 60 -66 0 -5 -18 7 -40 27 -44 40 -81 46 -118 20 -12 -8 -22 -11 -22 -5
0 16 42 41 70 41 14 0 37 -8 50 -17z m-12 -363 c-7 -11 -16 -20 -20 -20 -5 0
-8 -7 -8 -16 0 -22 -21 -12 -31 14 -7 20 -5 22 21 22 17 0 30 5 30 10 0 6 5
10 10 10 6 0 5 -8 -2 -20z m12 -780 c0 -5 -4 -10 -10 -10 -5 0 -10 5 -10 10 0
6 5 10 10 10 6 0 10 -4 10 -10z m-71 -318 c0 -15 -4 -36 -9 -47 -6 -15 -9 -6
-9 33 -1 33 3 51 9 47 6 -3 10 -18 9 -33z m11 -216 c0 -2 -7 -9 -15 -16 -13
-11 -14 -10 -9 4 5 14 24 23 24 12z m-84 -248 c0 -29 -1 -44 -4 -33 -2 11 -8
23 -13 26 -6 3 9 58 17 59 0 0 0 -24 0 -52z m-26 -38 c0 -5 -5 -10 -11 -10 -5
0 -7 5 -4 10 3 6 8 10 11 10 2 0 4 -4 4 -10z m-40 -10 c0 -5 -7 -10 -16 -10
-8 0 -12 5 -9 10 3 6 10 10 16 10 5 0 9 -4 9 -10z m240 -180 c0 -19 -7 -20
-170 -20 -168 0 -171 0 -160 20 10 19 21 20 170 20 153 0 160 -1 160 -20z
m-310 -460 c0 -5 -4 -10 -10 -10 -5 0 -10 5 -10 10 0 6 5 10 10 10 6 0 10 -4
10 -10z m-383 -46 c-3 -3 -12 -4 -19 -1 -8 3 -5 6 6 6 11 1 17 -2 13 -5z m421
-52 c3 -29 1 -32 -25 -32 -26 0 -29 3 -29 33 0 28 3 32 26 31 21 0 26 -6 28
-32z m-288 -2 c0 -25 -4 -30 -25 -30 -21 0 -25 5 -25 30 0 25 4 30 25 30 21 0
25 -5 25 -30z m598 -3 c3 -22 -1 -27 -17 -27 -17 0 -21 6 -21 31 0 24 4 30 18
27 10 -2 18 -14 20 -31z"/>
<path d="M2152 3116 c-2 -22 -6 -27 -19 -22 -17 6 -17 5 0 -8 9 -7 17 -18 17
-25 0 -6 4 -11 8 -11 24 0 33 -90 31 -296 -1 -177 -4 -214 -15 -210 -22 8 -17
-3 12 -28 l27 -22 2 -237 3 -237 -21 15 c-35 25 -65 19 -83 -16 -13 -27 -14
-41 -4 -98 6 -36 13 -79 16 -96 3 -16 9 -34 15 -40 5 -5 9 -29 9 -55 0 -26 -4
-40 -8 -32 -5 7 -9 -14 -10 -50 -1 -35 -4 -81 -8 -103 -7 -41 -57 -125 -75
-125 -6 0 -7 -4 -4 -10 3 -5 2 -10 -3 -10 -5 0 -14 -11 -20 -25 -14 -31 0 -33
21 -2 9 12 34 42 56 66 45 48 45 47 62 175 8 60 17 94 30 107 10 10 13 19 8
21 -6 2 -11 10 -13 18 -1 8 -7 25 -14 37 -7 12 -12 33 -12 47 0 13 -4 26 -10
28 -5 2 -11 37 -12 78 -2 60 0 75 12 77 27 6 49 -20 51 -62 2 -22 7 -43 12
-46 10 -7 14 -220 4 -263 -3 -16 -11 -54 -17 -85 -7 -31 -16 -64 -21 -73 -5
-9 -5 -19 0 -22 4 -3 3 -27 -4 -53 -11 -43 -11 -72 1 -60 11 11 30 108 22 113
-5 3 -4 12 3 20 6 8 9 17 6 21 -4 3 -2 12 4 20 6 7 9 22 6 32 -3 14 -1 18 9
14 17 -6 18 -35 3 -50 -7 -7 -6 -12 4 -16 11 -4 13 15 12 111 -1 65 -2 291 -3
505 -2 337 -4 387 -17 387 -13 0 -15 33 -15 234 0 186 -3 241 -15 270 -8 20
-19 36 -25 36 -5 0 -11 19 -13 43 -2 26 -4 31 -5 13z"/>
<path d="M1750 3110 c0 -5 5 -10 10 -10 6 0 10 5 10 10 0 6 -4 10 -10 10 -5 0
-10 -4 -10 -10z"/>
<path d="M1813 3113 c9 -2 23 -2 30 0 6 3 -1 5 -18 5 -16 0 -22 -2 -12 -5z"/>
<path d="M1969 3111 c8 -5 25 -7 39 -5 13 3 31 -1 39 -8 8 -7 22 -13 32 -14
11 -2 10 3 -8 17 -16 13 -38 19 -70 19 -31 0 -41 -3 -32 -9z"/>
<path d="M1969 3045 c-5 -50 -4 -63 7 -53 3 3 4 28 2 54 l-3 49 -6 -50z"/>
<path d="M1672 3060 c0 -14 2 -19 5 -12 2 6 2 18 0 25 -3 6 -5 1 -5 -13z"/>
<path d="M2000 2980 c-12 -8 -10 -10 8 -10 13 0 20 4 17 10 -7 12 -6 12 -25 0z"/>
<path d="M1655 2950 l-30 -8 33 -1 c17 0 32 4 32 9 0 6 -1 9 -2 9 -2 -1 -16
-5 -33 -9z"/>
<path d="M1920 2933 c-19 -2 -42 -7 -50 -10 -8 -3 -21 -7 -29 -9 -22 -4 -42
-29 -45 -55 -1 -14 -5 -30 -9 -36 -4 -6 -3 -14 3 -18 14 -8 13 -45 -1 -45 -8
0 -8 -5 1 -15 7 -8 9 -15 4 -16 -5 0 0 -4 11 -9 14 -6 15 -9 5 -9 -9 -1 -16
-11 -17 -23 -2 -20 -1 -21 8 -5 12 20 29 14 29 -10 0 -23 46 -81 78 -97 40
-20 112 4 160 53 20 20 45 40 54 44 16 6 16 26 1 67 -3 8 -7 22 -9 30 -5 25
-75 79 -110 86 -57 10 -99 -3 -140 -46 -32 -33 -40 -37 -47 -24 -11 19 10 75
32 89 21 13 55 18 122 19 45 1 64 -4 98 -27 24 -16 45 -27 47 -24 8 7 -53 67
-69 67 -8 0 -17 5 -19 10 -4 12 -59 19 -108 13z m142 -143 c21 -23 38 -47 38
-55 0 -9 -16 3 -36 25 -58 65 -125 71 -181 18 -13 -12 -23 -17 -23 -11 0 6 14
23 31 37 24 21 41 26 81 26 47 0 54 -4 90 -40z m-58 -4 c35 -15 66 -50 66 -76
0 -24 -66 -70 -113 -79 -32 -7 -35 -9 -14 -10 38 -1 92 23 122 55 37 40 41 22
5 -20 -35 -39 -95 -61 -143 -52 -33 7 -87 42 -87 57 0 6 12 1 26 -10 37 -29
48 -26 19 4 -30 29 -31 50 -5 93 30 50 68 61 124 38z"/>
<path d="M1915 2755 c-46 -45 -23 -115 38 -115 31 0 67 35 67 65 0 12 -7 30
-15 41 -13 16 -16 17 -25 4 -8 -13 -11 -11 -16 8 -8 28 -19 28 -49 -3z m35
-24 c0 -5 9 -11 20 -14 25 -7 26 -38 1 -54 -28 -18 -56 5 -45 38 4 13 7 27 6
32 -1 4 3 7 8 7 6 0 10 -4 10 -9z"/>
<path d="M1565 2716 c-33 -33 -33 -77 0 -112 14 -15 25 -22 25 -16 0 6 9 14
21 17 26 9 43 47 35 79 -4 17 -11 23 -21 20 -9 -4 -15 0 -15 9 0 28 -19 29
-45 3z m40 -46 c22 -25 13 -50 -20 -50 -21 0 -25 5 -25 28 0 46 16 54 45 22z"/>
<path d="M1822 2610 c0 -14 2 -19 5 -12 2 6 2 18 0 25 -3 6 -5 1 -5 -13z"/>
<path d="M1530 2606 c0 -2 8 -10 18 -17 15 -13 16 -12 3 4 -13 16 -21 21 -21
13z"/>
<path d="M2026 2353 c-3 -4 3 -13 14 -20 11 -8 18 -18 16 -22 -3 -4 1 -8 9 -8
19 0 19 -1 -9 30 -13 14 -27 23 -30 20z"/>
<path d="M1680 2231 c0 -5 7 -12 16 -15 14 -5 15 -4 4 9 -14 17 -20 19 -20 6z"/>
<path d="M2014 2178 c4 -14 0 -18 -21 -18 -26 0 -26 -1 -7 -15 18 -15 18 -15
-11 -13 -16 1 -35 6 -41 10 -6 5 -11 2 -11 -7 0 -8 6 -15 13 -15 7 0 16 -5 20
-12 4 -6 3 -8 -4 -4 -6 3 -13 2 -17 -4 -3 -6 4 -10 17 -10 31 0 81 69 66 91
-8 11 -9 11 -4 -3z"/>
<path d="M1900 2090 c9 -16 8 -20 -5 -20 -9 0 -23 -7 -32 -15 -8 -8 -19 -13
-24 -10 -5 4 -9 2 -9 -3 0 -5 14 -12 30 -14 25 -4 30 -1 30 15 0 16 3 17 15 7
12 -10 15 -10 15 3 0 8 6 18 13 20 10 4 10 6 0 6 -7 1 -13 8 -13 16 0 8 -7 15
-15 15 -13 0 -14 -4 -5 -20z"/>
<path d="M1815 2090 c-14 -6 -16 -9 -5 -10 8 -2 20 -1 25 0 6 1 15 3 22 3 7 0
10 4 7 9 -6 10 -23 9 -49 -2z"/>
<path d="M1991 1934 c0 -11 3 -14 6 -6 3 7 2 16 -1 19 -3 4 -6 -2 -5 -13z"/>
<path d="M1991 1788 c-1 -27 3 -48 7 -48 4 0 6 17 4 38 -5 58 -10 62 -11 10z"/>
<path d="M2270 1690 c0 -5 10 -10 21 -10 17 0 20 -4 15 -22 -3 -13 -6 -31 -6
-40 0 -9 -8 -19 -17 -21 -13 -3 -12 -5 5 -6 15 -1 21 -5 16 -13 -4 -6 -6 -32
-5 -57 1 -25 1 -62 1 -82 -4 -233 -4 -339 0 -339 3 0 4 -247 2 -550 -2 -382 0
-550 7 -550 8 0 11 259 11 850 l0 850 -25 0 c-14 0 -25 -4 -25 -10z"/>
<path d="M1582 1570 c0 -14 2 -19 5 -12 2 6 2 18 0 25 -3 6 -5 1 -5 -13z"/>
<path d="M2230 1470 c0 -5 5 -10 10 -10 6 0 10 5 10 10 0 6 -4 10 -10 10 -5 0
-10 -4 -10 -10z"/>
<path d="M2242 1420 c0 -14 2 -19 5 -12 2 6 2 18 0 25 -3 6 -5 1 -5 -13z"/>
<path d="M2054 1355 c-24 -25 -40 -45 -35 -45 5 0 17 7 26 16 24 25 31 7 11
-27 -10 -17 -15 -33 -11 -37 9 -10 41 35 64 91 26 63 7 63 -55 2z"/>
<path d="M1851 1364 c0 -11 3 -14 6 -6 3 7 2 16 -1 19 -3 4 -6 -2 -5 -13z"/>
<path d="M2190 1359 c0 -16 -4 -19 -20 -14 -15 5 -23 0 -32 -22 -6 -15 -25
-40 -42 -55 -17 -14 -28 -29 -24 -33 9 -9 63 32 78 61 l13 24 14 -26 c7 -15
13 -43 13 -63 0 -24 3 -31 9 -22 5 7 6 22 3 33 -3 15 -1 19 9 16 19 -6 20
-144 2 -141 -7 2 -13 -2 -13 -7 0 -5 6 -10 14 -10 15 0 14 42 6 -735 -2 -176
-5 -298 -7 -271 -3 34 -12 59 -29 79 -21 24 -24 26 -24 9 0 -11 7 -25 15 -32
11 -9 15 -32 15 -81 0 -38 4 -69 10 -69 5 0 7 7 4 15 -4 10 0 15 14 15 11 0
23 -8 25 -18 3 -9 5 272 6 626 l1 642 -30 0 c-27 0 -30 3 -30 30 0 27 3 30 30
30 23 0 30 4 30 20 0 16 -7 20 -30 20 -24 0 -30 -4 -30 -21z"/>
<path d="M2235 1310 c3 -5 8 -10 11 -10 2 0 4 5 4 10 0 6 -5 10 -11 10 -5 0
-7 -4 -4 -10z"/>
<path d="M2111 1227 c-18 -18 -12 -36 15 -43 29 -8 47 6 39 28 -8 20 -40 29
-54 15z m49 -23 c0 -2 -9 -4 -20 -4 -11 0 -20 4 -20 9 0 5 9 7 20 4 11 -3 20
-7 20 -9z"/>
<path d="M1800 1222 c0 -6 -8 -13 -17 -15 -16 -4 -16 -5 -1 -6 18 -1 34 16 24
26 -3 4 -6 1 -6 -5z"/>
<path d="M1826 1118 c8 -128 14 -153 14 -57 0 35 3 75 5 89 5 22 4 23 -5 5 -8
-17 -9 -14 -7 15 2 31 5 35 32 38 17 2 38 -3 47 -10 16 -12 18 -50 20 -466 l3
-453 -23 27 c-29 34 -39 25 -16 -15 17 -29 17 -30 -10 -65 -15 -20 -31 -36
-37 -36 -5 0 -8 -3 -7 -7 3 -18 -15 -63 -26 -63 -20 0 -39 -46 -32 -74 5 -19
13 -26 32 -26 14 0 23 -4 19 -10 -11 -17 17 -11 32 8 14 16 14 16 9 -1 -3 -11
0 -17 9 -17 9 0 12 6 8 17 -6 16 -4 16 15 -1 12 -11 22 -14 22 -8 0 7 5 12 11
12 5 0 7 -5 4 -10 -3 -6 3 -10 14 -10 14 0 19 5 15 15 -4 8 -17 15 -31 15 -22
0 -24 3 -19 22 4 13 9 39 12 58 l5 35 -19 -22 c-12 -14 -18 -31 -15 -46 6 -30
-4 -37 -62 -43 -44 -5 -45 -5 -45 24 0 21 6 31 20 35 11 3 23 13 27 24 3 10
20 34 37 55 52 61 93 157 100 230 4 39 3 45 -3 23 -5 -19 -9 57 -10 202 0 127
1 238 4 245 4 10 16 13 35 10 19 -3 30 0 30 7 0 8 -15 11 -42 9 l-43 -3 -5
-295 c-5 -275 -6 -267 -5 123 0 387 1 420 18 431 9 7 17 16 17 19 0 4 -8 3
-17 0 -16 -6 -16 -5 -4 10 10 13 23 15 51 11 29 -5 38 -2 43 10 6 14 -6 16
-91 17 -53 0 -107 2 -120 5 l-23 4 7 -112z"/>
<path d="M1915 760 c0 -239 1 -337 2 -218 2 120 2 316 0 435 -1 120 -2 22 -2
-217z"/>
<path d="M1872 1145 c0 -16 2 -22 5 -12 2 9 2 23 0 30 -3 6 -5 -1 -5 -18z"/>
<path d="M1536 1125 c-9 -26 -7 -32 5 -12 6 10 9 21 6 23 -2 3 -7 -2 -11 -11z"/>
<path d="M1640 1126 c0 -2 11 -6 25 -8 13 -3 22 -1 19 3 -5 9 -44 13 -44 5z"/>
<path d="M2068 1105 c-3 -14 -2 -25 1 -25 3 0 7 -48 7 -106 1 -58 6 -110 11
-115 8 -8 8 15 0 183 -2 32 1 59 6 61 5 1 2 8 -6 15 -12 10 -15 8 -19 -13z"/>
<path d="M1747 1099 c3 -10 9 -19 13 -19 7 0 10 -22 11 -72 0 -10 5 -18 10
-18 6 0 8 4 4 9 -3 5 -1 12 5 16 6 4 6 12 0 23 -5 9 -11 29 -14 43 -3 15 -12
29 -20 32 -10 4 -12 0 -9 -14z"/>
<path d="M1650 1080 c0 -5 7 -10 15 -10 8 0 15 5 15 10 0 6 -7 10 -15 10 -8 0
-15 -4 -15 -10z"/>
<path d="M1506 1063 c-6 -14 -5 -15 5 -6 7 7 10 15 7 18 -3 3 -9 -2 -12 -12z"/>
<path d="M1590 1020 c0 -22 3 -40 8 -40 4 0 6 18 4 40 -2 22 -6 40 -8 40 -2 0
-4 -18 -4 -40z"/>
<path d="M1640 1056 c0 -2 9 -6 20 -9 11 -3 20 -1 20 4 0 5 -9 9 -20 9 -11 0
-20 -2 -20 -4z"/>
<path d="M1800 975 c0 -15 -2 -17 -9 -6 -6 9 -11 10 -15 2 -4 -6 -2 -11 4 -11
6 0 17 -15 25 -32 8 -18 14 -26 14 -18 1 8 -3 22 -9 30 -5 8 -5 17 0 20 5 3 5
12 0 20 -8 12 -10 11 -10 -5z"/>
<path d="M1874 795 c0 -104 2 -146 3 -92 2 54 2 139 0 190 -1 51 -3 7 -3 -98z"/>
<path d="M1708 894 c2 -14 8 -21 11 -16 3 6 13 10 21 9 8 -1 15 3 15 8 0 6 -6
9 -12 9 -7 -1 -13 2 -13 7 0 5 -6 9 -14 9 -9 0 -12 -8 -8 -26z"/>
<path d="M1591 874 c0 -11 3 -14 6 -6 3 7 2 16 -1 19 -3 4 -6 -2 -5 -13z"/>
<path d="M1666 841 c-4 -7 -5 -15 -2 -18 9 -9 19 4 14 18 -4 11 -6 11 -12 0z"/>
<path d="M1837 775 c6 -91 11 -105 12 -30 0 33 -4 69 -8 80 -5 12 -7 -9 -4
-50z"/>
<path d="M1702 810 c0 -14 2 -19 5 -12 2 6 2 18 0 25 -3 6 -5 1 -5 -13z"/>
<path d="M1732 810 c0 -14 2 -19 5 -12 2 6 2 18 0 25 -3 6 -5 1 -5 -13z"/>
<path d="M1650 800 c-23 -7 -23 -8 -3 -9 12 -1 24 -7 26 -13 3 -7 6 -3 6 10 1
12 0 22 -1 21 -2 -1 -14 -5 -28 -9z"/>
<path d="M1558 793 c7 -3 16 -2 19 1 4 3 -2 6 -13 5 -11 0 -14 -3 -6 -6z"/>
<path d="M1598 793 c7 -3 16 -2 19 1 4 3 -2 6 -13 5 -11 0 -14 -3 -6 -6z"/>
<path d="M2100 737 l5 -52 3 44 c2 24 0 47 -5 52 -4 4 -6 -15 -3 -44z"/>
<path d="M1307 753 c-4 -3 -7 -11 -7 -17 0 -6 5 -5 12 2 6 6 9 14 7 17 -3 3
-9 2 -12 -2z"/>
<path d="M1346 726 c-9 -14 -23 -38 -32 -52 -8 -14 -14 -30 -12 -35 2 -5 18
15 37 46 19 30 31 58 28 61 -3 3 -13 -6 -21 -20z"/>
<path d="M1657 736 c-17 -13 -16 -14 3 -19 15 -4 20 0 20 14 0 22 0 22 -23 5z"/>
<path d="M1508 723 c6 -2 18 -2 25 0 6 3 1 5 -13 5 -14 0 -19 -2 -12 -5z"/>
<path d="M1508 683 c7 -3 16 -2 19 1 4 3 -2 6 -13 5 -11 0 -14 -3 -6 -6z"/>
<path d="M1835 610 c-3 -5 -1 -10 4 -10 6 0 11 5 11 10 0 6 -2 10 -4 10 -3 0
-8 -4 -11 -10z"/>
<path d="M1248 563 c7 -3 16 -2 19 1 4 3 -2 6 -13 5 -11 0 -14 -3 -6 -6z"/>
<path d="M1338 533 c7 -3 16 -2 19 1 4 3 -2 6 -13 5 -11 0 -14 -3 -6 -6z"/>
<path d="M1448 533 c39 -2 105 -2 145 0 39 1 7 3 -73 3 -80 0 -112 -2 -72 -3z"/>
<path d="M1346 495 c-3 -8 -1 -15 4 -15 6 0 10 7 10 15 0 8 -2 15 -4 15 -2 0
-6 -7 -10 -15z"/>
<path d="M1380 495 c0 -8 7 -15 16 -15 14 0 14 3 4 15 -7 8 -14 15 -16 15 -2
0 -4 -7 -4 -15z"/>
<path d="M1427 496 c-5 -12 0 -16 23 -16 17 0 30 4 30 9 0 5 -8 8 -17 7 -10
-2 -21 1 -24 6 -3 5 -9 3 -12 -6z"/>
<path d="M1590 497 c0 -10 8 -17 18 -17 9 0 13 4 7 8 -5 4 -13 11 -17 16 -5 5
-8 2 -8 -7z"/>
<path d="M1500 490 c0 -5 9 -10 21 -10 11 0 17 5 14 10 -3 6 -13 10 -21 10 -8
0 -14 -4 -14 -10z"/>
<path d="M1550 490 c0 -5 7 -10 16 -10 8 0 12 5 9 10 -3 6 -10 10 -16 10 -5 0
-9 -4 -9 -10z"/>
<path d="M1635 490 c-3 -5 1 -10 10 -10 9 0 13 5 10 10 -3 6 -8 10 -10 10 -2
0 -7 -4 -10 -10z"/>
<path d="M1827 450 c3 -25 8 -47 12 -50 5 -3 14 -16 20 -28 7 -13 15 -21 18
-18 3 3 1 11 -4 18 -6 7 -14 28 -18 46 -3 17 -10 32 -15 32 -5 0 -11 10 -13
23 -2 12 -2 2 0 -23z"/>
<path d="M1091 457 c-13 -21 -12 -21 5 -5 10 10 16 20 13 22 -3 3 -11 -5 -18
-17z"/>
<path d="M2085 430 c3 -5 8 -10 11 -10 2 0 4 5 4 10 0 6 -5 10 -11 10 -5 0 -7
-4 -4 -10z"/>
<path d="M1065 420 c3 -5 8 -10 11 -10 2 0 4 5 4 10 0 6 -5 10 -11 10 -5 0 -7
-4 -4 -10z"/>
<path d="M1403 403 c15 -2 39 -2 55 0 15 2 2 4 -28 4 -30 0 -43 -2 -27 -4z"/>
<path d="M1508 403 c6 -2 18 -2 25 0 6 3 1 5 -13 5 -14 0 -19 -2 -12 -5z"/>
<path d="M1558 403 c7 -3 16 -2 19 1 4 3 -2 6 -13 5 -11 0 -14 -3 -6 -6z"/>
<path d="M1598 403 c7 -3 16 -2 19 1 4 3 -2 6 -13 5 -11 0 -14 -3 -6 -6z"/>
<path d="M1638 403 c7 -3 16 -2 19 1 4 3 -2 6 -13 5 -11 0 -14 -3 -6 -6z"/>
<path d="M1280 365 c0 -8 5 -15 10 -15 6 0 10 7 10 15 0 8 -4 15 -10 15 -5 0
-10 -7 -10 -15z"/>
<path d="M1310 365 c0 -8 4 -15 10 -15 5 0 7 7 4 15 -4 8 -8 15 -10 15 -2 0
-4 -7 -4 -15z"/>
<path d="M1346 365 c-3 -8 -1 -15 4 -15 6 0 10 7 10 15 0 8 -2 15 -4 15 -2 0
-6 -7 -10 -15z"/>
<path d="M1380 367 c0 -10 8 -17 18 -17 9 0 13 4 7 8 -5 4 -13 11 -17 16 -5 5
-8 2 -8 -7z"/>
<path d="M1430 365 c0 -9 10 -15 26 -15 23 0 24 2 10 15 -8 8 -19 15 -25 15
-6 0 -11 -7 -11 -15z"/>
<path d="M1509 371 c11 -7 11 -9 0 -14 -9 -3 -6 -6 7 -6 12 -1 21 5 21 14 0 9
-9 15 -21 15 -16 0 -18 -2 -7 -9z"/>
<path d="M1991 354 c0 -11 3 -14 6 -6 3 7 2 16 -1 19 -3 4 -6 -2 -5 -13z"/>
<path d="M1558 353 c7 -3 16 -2 19 1 4 3 -2 6 -13 5 -11 0 -14 -3 -6 -6z"/>
<path d="M1736 333 c-6 -14 -5 -15 5 -6 7 7 10 15 7 18 -3 3 -9 -2 -12 -12z"/>
<path d="M2041 334 c0 -11 3 -14 6 -6 3 7 2 16 -1 19 -3 4 -6 -2 -5 -13z"/>
<path d="M2150 336 c0 -8 -8 -17 -17 -19 -17 -4 -17 -5 0 -6 20 -1 24 -46 5
-54 -8 -3 -6 -6 5 -6 14 -1 17 8 17 49 0 28 -2 50 -5 50 -3 0 -5 -6 -5 -14z"/>
<path d="M2088 332 c-22 -4 -22 -15 -2 -58 19 -39 29 -43 37 -14 3 11 1 18 -3
15 -5 -3 -10 9 -12 27 -2 26 -7 33 -20 30z m12 -34 c0 -19 -2 -20 -10 -8 -13
19 -13 30 0 30 6 0 10 -10 10 -22z"/>
<path d="M1693 274 c-15 -16 -16 -24 -4 -24 8 0 24 30 19 35 -2 2 -9 -3 -15
-11z"/>
<path d="M1214 269 c-3 -6 -1 -16 5 -22 8 -8 11 -5 11 11 0 24 -5 28 -16 11z"/>
<path d="M1257 265 c-4 -8 -2 -17 3 -20 6 -4 10 3 10 14 0 25 -6 27 -13 6z"/>
<path d="M1280 260 c0 -5 5 -10 10 -10 6 0 10 5 10 10 0 6 -4 10 -10 10 -5 0
-10 -4 -10 -10z"/>
<path d="M1310 260 c0 -5 5 -10 11 -10 5 0 7 5 4 10 -3 6 -8 10 -11 10 -2 0
-4 -4 -4 -10z"/>
<path d="M1345 260 c-3 -5 -1 -10 4 -10 6 0 11 5 11 10 0 6 -2 10 -4 10 -3 0
-8 -4 -11 -10z"/>
<path d="M1606 245 c-10 -7 -16 -19 -14 -25 2 -6 14 0 27 14 26 28 18 35 -13
11z"/>
<path d="M2130 215 c0 -14 7 -42 15 -62 20 -48 20 -93 -1 -93 -9 0 -14 7 -13
18 4 24 -10 62 -22 62 -6 0 -8 -12 -5 -27 15 -67 15 -71 -4 -76 -20 -5 -37 24
-25 43 3 5 -1 22 -9 37 -11 21 -16 24 -20 13 -5 -13 -2 -72 5 -90 1 -3 1 -7 1
-10 0 -3 6 -11 14 -18 10 -9 14 -9 14 -1 0 9 3 9 14 0 10 -9 15 -8 20 4 3 8
16 15 30 15 37 0 50 65 21 104 -8 11 -15 37 -15 57 0 21 -4 41 -10 44 -6 4
-10 -5 -10 -20z"/>
<path d="M1478 186 c-91 -51 -87 -58 8 -16 38 17 77 50 58 50 -5 0 -35 -15
-66 -34z"/>
<path d="M1718 203 c7 -3 16 -2 19 1 4 3 -2 6 -13 5 -11 0 -14 -3 -6 -6z"/>
<path d="M1190 190 c0 -5 6 -9 13 -7 6 1 11 -4 10 -10 -2 -7 2 -13 7 -13 6 0
10 9 10 20 0 13 -7 20 -20 20 -11 0 -20 -4 -20 -10z"/>
<path d="M1280 189 c0 -5 5 -7 10 -4 6 3 10 8 10 11 0 2 -4 4 -10 4 -5 0 -10
-5 -10 -11z"/>
<path d="M1703 176 c4 -13 60 -16 79 -5 9 6 5 9 -12 10 -14 0 -35 2 -48 3 -13
2 -21 -2 -19 -8z"/>
<path d="M1158 125 c2 -14 6 -25 8 -25 2 0 4 11 4 25 0 14 -4 25 -9 25 -4 0
-6 -11 -3 -25z"/>
<path d="M1222 125 c0 -16 2 -22 5 -12 2 9 2 23 0 30 -3 6 -5 -1 -5 -18z"/>
<path d="M1261 134 c0 -11 3 -14 6 -6 3 7 2 16 -1 19 -3 4 -6 -2 -5 -13z"/>
<path d="M1565 125 c-4 -16 -12 -36 -18 -43 -5 -7 -7 -15 -3 -19 3 -3 6 0 7 8
0 8 4 6 9 -6 8 -18 9 -18 9 -2 1 17 29 54 39 50 3 -1 9 -7 13 -15 7 -10 9 -10
9 0 0 7 -7 15 -15 18 -8 4 -15 14 -15 23 0 13 -2 13 -9 2 -7 -11 -9 -11 -14 0
-2 8 -8 1 -12 -16z"/>
<path d="M1980 70 c0 -38 4 -50 15 -50 8 0 15 -4 15 -10 0 -5 9 -10 20 -10 26
0 25 15 -2 34 -17 12 -22 24 -19 51 2 26 -1 35 -13 35 -12 0 -16 -11 -16 -50z"/>
<path d="M1150 76 c0 -8 5 -18 10 -21 6 -3 10 3 10 14 0 12 -4 21 -10 21 -5 0
-10 -6 -10 -14z"/>
<path d="M1191 74 c0 -11 3 -14 6 -6 3 7 2 16 -1 19 -3 4 -6 -2 -5 -13z"/>
<path d="M1216 75 c8 -19 14 -19 14 0 0 8 -4 15 -10 15 -5 0 -7 -7 -4 -15z"/>
<path d="M1261 74 c0 -11 3 -14 6 -6 3 7 2 16 -1 19 -3 4 -6 -2 -5 -13z"/>
<path d="M1621 64 c0 -11 3 -14 6 -6 3 7 2 16 -1 19 -3 4 -6 -2 -5 -13z"/>
</g>
</svg>
